<svg xmlns="http://www.w3.org/2000/svg" xmlns:xlink="http://www.w3.org/1999/xlink" xml:space="preserve" version="1.1" style="shape-rendering:geometricPrecision;text-rendering:geometricPrecision;image-rendering:optimizeQuality;" viewBox="-20 -40 331 341.25" x="0px" y="0px" fill-rule="evenodd" clip-rule="evenodd">
  <defs>
    <style type="text/css">
      .fil0 {fill:white}
    </style>
  </defs>
  <g>
    <path class="fil0" d="M148 170c13,2 23,17 23,34 0,7 -1,12 -3,17 4,4 7,9 7,15 0,5 -3,11 -8,14 -2,4 2,6 -1,10 -4,4 -19,5 -21,13l0 0 0 0c-1,-8 -16,-9 -20,-13 -3,-4 1,-6 -1,-10 -5,-3 -8,-9 -8,-14 0,-6 2,-11 7,-15 -2,-5 -3,-10 -3,-17 0,-18 10,-32 23,-34 -4,16 -6,31 -7,46 2,-14 5,-28 9,-40 0,19 2,37 2,57 0,-20 1,-39 0,-59 4,12 7,24 8,38 0,-13 -2,-27 -7,-42z"/>
    <path class="fil0" d="M95 79c0,-30 17,-58 50,-79 36,21 52,50 51,79 -16,7 -26,15 -34,25 3,-10 5,-20 7,-30 -6,17 -12,34 -21,50 2,-25 0,-48 1,-74 -2,26 -4,48 -5,74 -7,-15 -11,-29 -12,-48 -1,11 0,22 2,35 -8,-14 -20,-24 -39,-32z"/>
    <path class="fil0" d="M109 237c-22,16 -52,18 -83,0 2,-29 13,-48 29,-60 14,6 28,8 43,7 -7,2 -14,4 -20,6 12,-2 24,-4 37,-4 -16,7 -29,16 -44,24 16,-7 30,-14 45,-22 -6,9 -13,16 -24,24 8,-4 15,-9 22,-17 -6,18 -5,26 -5,42z"/>
    <path class="fil0" d="M125 177c-68,18 -125,-23 -125,-92 49,-21 118,-12 139,43 -6,0 -13,5 -17,12 -15,-17 -31,-29 -47,-40 14,13 29,27 41,43 -25,-13 -48,-21 -73,-33 24,13 47,26 72,38 -18,0 -35,-4 -54,-10 16,9 34,13 56,14 -1,8 1,17 8,25z"/>
    <path class="fil0" d="M182 237c22,16 52,18 83,0 -2,-29 -13,-48 -29,-60 -14,6 -28,8 -43,7 7,2 14,4 20,6 -12,-2 -24,-4 -37,-4 16,7 29,16 44,24 -16,-7 -30,-14 -45,-22 6,9 13,16 24,24 -8,-4 -15,-9 -22,-17 6,18 5,26 5,42z"/>
    <path class="fil0" d="M166 177c68,18 125,-23 125,-92 -49,-21 -118,-12 -139,43 6,0 13,5 17,12 15,-17 31,-29 47,-40 -14,13 -29,27 -41,43 25,-13 48,-21 73,-33 -24,13 -47,26 -72,38 18,0 35,-4 54,-10 -16,9 -34,13 -56,14 1,8 -1,17 -8,25z"/>
    <path class="fil0" d="M129 172c2,-3 -1,-4 12,-17 0,0 -3,-11 0,-21 -11,1 -27,20 -12,38z"/>
    <path class="fil0" d="M162 172c-2,-3 1,-4 -12,-17 0,0 3,-11 0,-21 11,1 26,20 12,38z"/>
  </g>
</svg>